<svg width="335" height="46" viewBox="0 0 335 46" fill="none" xmlns="http://www.w3.org/2000/svg">
<path d="M308.182 30.3209V13.2329L281.079 13.2329L281.079 30.3209L308.182 30.3209Z" fill="#FFC943"/>
<path d="M301.809 30.3209L304.461 13.2329H308.182V30.3209H301.809Z" fill="#FF833E"/>
<path d="M318.437 30.0697L318.437 13.4836L313.261 13.4836V30.0697H318.437Z" fill="#4C6E93"/>
<path d="M316.107 26.101V17.4526L330.879 17.4526C333.155 17.4526 335 19.2973 335 21.5731V21.9809C335 24.2563 333.155 26.101 330.879 26.101H316.107Z" fill="#4C6E93"/>
<path d="M330.438 24.3325C329.027 24.3325 327.882 23.1881 327.882 21.7766C327.882 20.3651 329.027 19.2207 330.438 19.2207C331.85 19.2207 332.994 20.3651 332.994 21.7766C332.994 23.1881 331.85 24.3325 330.438 24.3325Z" fill="#6685AA"/>
<path d="M314.91 33.2742V10.2797L305.691 10.2797L305.691 33.2742H314.91Z" fill="#3C3C5B"/>
<path d="M314.91 30.3207V20.3003H305.691V30.3207H314.91Z" fill="#2F2F3F"/>
<path d="M314.91 17.3327V12.7303L305.691 12.7303V17.3327L314.91 17.3327Z" fill="#606087"/>
<path d="M323 36.9007V9.90067L319 9.90067V36.9007H323Z" fill="#4C6E93"/>
<path d="M323 26.9007V9.90067L319 9.90067V26.9007H323Z" fill="#6685AA"/>
<path d="M325 30.9007V11.9007L317 11.9007V30.9007H325Z" fill="#4C6E93"/>
<path d="M324.461 33.5454H316.925L313.935 45.6107H327.45L324.461 33.5454Z" fill="#3C3C5B"/>
<path d="M0.499968 27.5599L0.499969 15.9936C0.499969 7.16036 7.66077 -7.10822e-06 16.4936 -6.72213e-06L281.409 -6.99101e-07C290.242 -3.12989e-07 297.403 7.16079 297.403 15.9936L297.403 27.5599C297.403 36.3931 290.242 43.5535 281.409 43.5535L16.4936 43.5535C7.66035 43.5535 0.499968 36.3927 0.499968 27.5599Z" fill="#4C6E93"/>
<path d="M-1.26471e-05 27.5224L-1.21422e-05 15.9718C-1.17567e-05 7.15063 6.34311 -5.66959e-06 14.1673 -5.32758e-06L248.833 -6.19272e-07C256.657 -2.7725e-07 263 7.15105 263 15.9718L263 27.5224C263 36.3436 256.657 43 248.833 43L14.1673 43C6.34274 43 -1.30327e-05 36.3432 -1.26471e-05 27.5224Z" fill="#39546B"/>
<path d="M13.9999 10.3096L13.9999 9.92463C13.9999 8.02582 17.9399 6.48656 22.8001 6.48656L279.01 6.48657C283.87 6.48657 287.809 8.02584 287.809 9.92464L287.809 10.31C287.809 12.2088 283.869 13.7476 279.01 13.7476L22.799 13.7476C17.9399 13.7476 13.9999 12.2084 13.9999 10.3096Z" fill="#91B7E1"/>
</svg>
