<svg width="243" height="185" viewBox="0 0 243 185" fill="none" xmlns="http://www.w3.org/2000/svg">
<path d="M206.268 121.955C205.986 131.586 167.221 138.253 119.682 136.848C72.1432 135.444 33.8349 126.497 34.1172 116.866C34.146 115.88 34.4346 112.067 34.4346 112.067C34.4346 112.067 78.0337 100.711 120.703 101.973C163.599 103.24 206.237 116.967 206.237 116.967C206.237 116.967 206.296 121.014 206.268 121.955Z" fill="#0F263E"/>
<path d="M206.393 117.685C206.111 127.316 167.346 133.983 119.807 132.578C72.2684 131.173 33.96 122.227 34.2424 112.596C34.5247 102.966 73.2899 96.2981 120.829 97.703C168.367 99.1078 206.676 108.054 206.393 117.685Z" fill="#1D4C7B"/>
<path d="M239.061 105.36C238.673 118.603 185.37 127.77 120.005 125.839C54.6395 123.907 1.96575 111.606 2.35272 98.3637C2.39315 97.0077 2.78921 91.7655 2.78921 91.7655C2.78921 91.7655 62.7371 76.1521 121.409 77.8853C180.391 79.6279 239.017 98.5023 239.017 98.5023C239.017 98.5023 239.099 104.067 239.061 105.36Z" fill="#347ABB"/>
<path d="M239.256 99.5127C239.644 86.2709 186.972 73.967 121.608 72.0311C56.2439 70.0952 2.941 79.2605 2.55243 92.5023C2.16387 105.744 54.8368 118.048 120.201 119.984C185.564 121.92 238.867 112.754 239.256 99.5127Z" fill="#6A95C4"/>
<path d="M54.5289 86.367C55.664 47.6274 86.3892 17.1025 123.157 18.1899C159.925 19.2761 188.811 51.5636 187.676 90.3032C143.621 99.7279 97.9569 98.3781 54.5289 86.367Z" fill="#97D1CD"/>
<path opacity="0.3" d="M146.061 23.1835C166.765 36.2817 173.241 65.9414 173.148 92.988C178.006 92.2134 182.852 91.3339 187.676 90.3032C188.561 60.0923 171.188 33.8104 146.061 23.1835Z" fill="#5EA7C7"/>
<path d="M148.619 95.7682C151.522 95.5626 154.425 95.3272 157.325 95.0354C157.263 85.594 159.646 58.0792 145.036 32.6711C140.781 25.2726 136.058 21.7076 132.842 20.0377C150.296 40.8073 149.716 69.3695 148.619 95.7682Z" fill="#D6E4F1"/>
<path d="M69.6987 77.8901C74.1874 50.4684 90.9184 25.8473 119.436 19.2363C121.212 18.8245 122.981 18.5068 124.739 18.2795C124.211 18.2502 123.689 18.2062 123.158 18.1911C86.3901 17.1049 55.6645 47.6285 54.5299 86.3694C59.101 87.633 63.701 88.7528 68.317 89.7808C68.6152 85.8533 69.0407 81.9105 69.6987 77.8901Z" fill="#D6E4F1"/>
<path d="M42.8924 91.5088C42.8924 91.5088 38.8681 92.9347 33.9582 92.7896C29.0496 92.6439 25.1147 90.9833 25.1147 90.9833C25.1889 88.4259 29.1456 85.585 34.0555 85.7302C38.965 85.8741 42.9679 88.9509 42.8924 91.5088Z" fill="#347ABB"/>
<path d="M78.7205 104.049C78.7205 104.049 74.2547 105.631 68.8079 105.47C63.3611 105.309 58.9957 103.466 58.9957 103.466C59.0791 100.628 63.4682 97.4761 68.9162 97.6367C74.3618 97.7982 78.8039 101.211 78.7205 104.049Z" fill="#347ABB"/>
<path d="M199.967 96.1514C199.967 96.1514 203.901 97.8124 208.81 97.9576C213.719 98.1032 217.745 96.6768 217.745 96.6768C217.82 94.1189 214.036 91.0501 209.127 90.9044C204.217 90.7593 200.041 93.5939 199.967 96.1514Z" fill="#347ABB"/>
<path d="M163.467 106.553C163.467 106.553 167.833 108.397 173.279 108.558C178.726 108.719 183.192 107.136 183.192 107.136C183.275 104.299 179.077 100.893 173.63 100.732C168.184 100.571 163.551 103.716 163.467 106.553Z" fill="#347ABB"/>
<path d="M130.341 109.982C130.341 109.982 125.875 111.564 120.428 111.403C114.982 111.242 110.615 109.399 110.615 109.399C110.698 106.561 115.087 103.409 120.535 103.57C125.983 103.73 130.423 107.144 130.341 109.982Z" fill="#347ABB"/>
</svg>
