<svg width="335" height="46" viewBox="0 0 335 46" fill="none" xmlns="http://www.w3.org/2000/svg">
<path d="M308.182 30.3209V13.2329L281.079 13.2329L281.079 30.3209L308.182 30.3209Z" fill="#FFC943"/>
<path d="M301.809 30.3209L304.461 13.2329H308.182V30.3209H301.809Z" fill="#FF833E"/>
<path d="M318.437 30.0697L318.437 13.4836L313.261 13.4836V30.0697H318.437Z" fill="#934C4C"/>
<path d="M316.107 26.101V17.4525L330.879 17.4525C333.155 17.4525 335 19.2972 335 21.5731V21.9809C335 24.2563 333.155 26.101 330.879 26.101H316.107Z" fill="#934C4C"/>
<path d="M330.438 24.3325C329.027 24.3325 327.882 23.1881 327.882 21.7766C327.882 20.3651 329.027 19.2207 330.438 19.2207C331.85 19.2207 332.994 20.3651 332.994 21.7766C332.994 23.1881 331.85 24.3325 330.438 24.3325Z" fill="#6685AA"/>
<path d="M314.91 33.2742V10.2797L305.691 10.2797L305.691 33.2742H314.91Z" fill="#3C3C5B"/>
<path d="M314.91 30.3206V20.3002H305.691V30.3206H314.91Z" fill="#3F2F2F"/>
<path d="M314.91 17.3326V12.7302L305.691 12.7302V17.3326L314.91 17.3326Z" fill="#606087"/>
<path d="M323 36.9006V9.90063L319 9.90063V36.9006H323Z" fill="#934C4C"/>
<path d="M323 26.9006V9.90063L319 9.90063V26.9006H323Z" fill="#6685AA"/>
<path d="M325 30.9006V11.9006L317 11.9006V30.9006H325Z" fill="#934C4C"/>
<path d="M324.461 33.5454H316.925L313.935 45.6107H327.45L324.461 33.5454Z" fill="#3C3C5B"/>
<path d="M0.499968 27.5599L0.499969 15.9936C0.499969 7.16036 7.66077 -7.10822e-06 16.4936 -6.72213e-06L281.409 -6.99101e-07C290.242 -3.12989e-07 297.403 7.16079 297.403 15.9936L297.403 27.5599C297.403 36.3931 290.242 43.5535 281.409 43.5535L16.4936 43.5535C7.66035 43.5535 0.499968 36.3927 0.499968 27.5599Z" fill="#934C4C"/>
<path d="M-3.82565e-06 27.5224L-3.32076e-06 15.9718C-2.93517e-06 7.15063 1.90535 2.17933e-06 4.25558 2.28206e-06L74.7444 -1.86017e-07C77.0948 -8.32804e-08 79 7.15105 79 15.9718L79 27.5224C79 36.3436 77.0947 43 74.7444 43L4.25558 43C1.90523 43 -4.21122e-06 36.3432 -3.82565e-06 27.5224Z" fill="#6B3939"/>
<path d="M13.9999 10.3096L13.9999 9.92463C13.9999 8.02582 17.9399 6.48656 22.8001 6.48656L279.01 6.48657C283.87 6.48657 287.809 8.02584 287.809 9.92464L287.809 10.31C287.809 12.2088 283.869 13.7476 279.01 13.7476L22.799 13.7476C17.9399 13.7476 13.9999 12.2084 13.9999 10.3096Z" fill="#E19191"/>
</svg>
