<svg width="393" height="852" viewBox="0 0 393 852" fill="none" xmlns="http://www.w3.org/2000/svg">
<g clip-path="url(#clip0_352_18780)">
<mask id="mask0_352_18780" style="mask-type:luminance" maskUnits="userSpaceOnUse" x="-39" y="0" width="1278" height="852">
<path d="M1239 0H-39V852H1239V0Z" fill="white"/>
</mask>
<g mask="url(#mask0_352_18780)">
<path d="M1239 0H-39V852H1239V0Z" fill="#330F21"/>
</g>
<mask id="mask1_352_18780" style="mask-type:luminance" maskUnits="userSpaceOnUse" x="-39" y="0" width="1278" height="852">
<path d="M1239 0H-39V852H1239V0Z" fill="white"/>
</mask>
<g mask="url(#mask1_352_18780)">
<path d="M1239 152.067C1217.53 145.815 1195.11 140.895 1173.86 137.968C1072.03 123.946 966.873 120.428 863.844 116.952C748.548 113.062 637.013 116.523 523.277 124.694C461.587 129.124 401.811 136.685 339.569 139.837C271.404 143.291 202.912 147.718 135.122 150.119C97.6352 151.448 61.0418 149.804 24.9511 142.391C5.43691 138.385 -17.1121 134.785 -39 129.134V587.987C22.0611 607.372 92.2693 608.294 151.589 612.404C255.359 619.595 362.992 624.966 466.928 625.693C580.956 626.491 697.661 631.862 811.409 623.788C893.834 617.939 976.17 619.738 1058.16 608.817C1112.73 601.548 1181.81 598.586 1239 576.582V152.067Z" fill="#230119"/>
</g>
<mask id="mask2_352_18780" style="mask-type:luminance" maskUnits="userSpaceOnUse" x="-39" y="0" width="1278" height="852">
<path d="M1239 0H-39V852H1239V0Z" fill="white"/>
</mask>
<g mask="url(#mask2_352_18780)">
<path d="M-62.856 381.694C-32.1227 383.449 -14.1966 392.833 9.09026 408.909C24.1468 419.303 26.5955 434.45 39.8083 446.061C50.3526 455.328 70.0832 455.967 83.3148 463.067C103.373 473.831 108.67 484.454 131.4 482.135C140.881 481.167 162.738 473.741 170.553 475.246C189.356 478.868 184.089 497.79 208.117 489.506C213.618 487.61 226.071 481.576 230.321 477.529C236.559 471.589 236.612 462.554 243.871 458.291C260.045 448.791 273.364 470.468 284.673 477.117C292.682 481.825 299.063 482.702 307.381 486.921C317.431 492.02 322.33 502.143 332.428 508.244C350.071 518.899 367.476 513.734 385.385 509.498C416.455 502.148 447.405 486.874 480.342 482.234C497.489 479.817 513.805 488.779 531.929 484.059C552.481 478.706 556.851 469.254 575.677 481.842C602.801 499.979 633.179 512.025 661.433 526.234C678.231 534.683 683.198 548.62 702.329 550.387C720.659 552.081 726.282 538.72 742.763 539.783C759.298 540.851 761.212 558.944 771.642 571.213C776.102 576.458 789.146 580.413 787.512 589.618C785.968 598.319 756.345 603.824 748.026 605.416C713.587 612.005 674.323 603.702 639.151 605.295C598.243 607.147 562.529 600.053 522.354 595.938C446.862 588.206 365.298 584.581 289.942 596.029C240.454 603.547 201.516 619.895 150.546 607.933C95.7114 595.062 54.19 552.272 7.51575 523.752C-14.7998 510.116 -62.1472 480.281 -73.1567 454.537C-79.2945 440.184 -71.1204 436.033 -67.508 422.127C-64.8378 411.859 -61.106 391.971 -62.856 381.694Z" fill="#2C061E"/>
</g>
<mask id="mask3_352_18780" style="mask-type:luminance" maskUnits="userSpaceOnUse" x="-39" y="403" width="1278" height="449">
<path d="M1239 403.848H-39V852H1239V403.848Z" fill="white"/>
</mask>
<g mask="url(#mask3_352_18780)">
<path d="M1259.57 640.484C1248.08 637.088 1236.37 634.034 1225.86 629.86C1211.64 624.206 1196.5 624.521 1182.72 619.169C1171.13 614.663 1159.8 609.349 1149.93 601.667C1141.61 595.188 1134.82 582.006 1123.38 581.87C1112.69 581.744 1108.04 578.177 1097.57 575.117C1087.16 572.075 1080.82 576.272 1070.32 578.339C1061.18 580.14 1054.68 580.086 1047.17 586.513C1031.92 599.571 1016.58 611.412 1000.94 623.618C989.976 632.172 987.013 632.845 973.882 630.437C962.09 628.275 949.869 623.775 937.517 625.559C928.392 626.878 925.333 629.163 916.963 623.681C908.213 617.95 898.82 612.436 890.57 606.002C881.801 599.162 873.445 593.341 865.654 586.132C857.619 578.697 846.668 575.843 836.854 571.479C828.467 567.749 821.191 559.455 812.143 557.377C802.359 555.129 790.698 558.111 782.26 562.533C765.828 571.145 750.765 584.446 732.248 585.28C721.993 585.741 713.5 590.339 703.154 588.543C696.815 587.442 692.021 584.796 686.294 581.747C674.143 575.277 661.221 570.799 650.479 561.911C645.609 557.881 643.171 551.958 637.935 548.224C633.318 544.934 626.715 542.891 621.488 540.786C611.184 536.641 600.465 531.6 589.964 528.882C578.816 525.997 566.757 526.817 555.458 524.643C541.049 521.869 531.341 509.826 519.116 502.68C508.182 496.288 493.749 494.656 482.232 489.234C468.622 482.827 456.305 480.035 442.194 476.268C432.27 473.618 423.074 469.765 412.434 471.115C399.978 472.696 388.53 480.966 375.926 483.932C363.615 486.831 352.055 484.667 340.713 491.607C333.907 495.772 328.548 501.85 321.187 505.042C315.804 507.376 309.158 508.289 303.462 509.726C290.22 513.066 282.748 519.418 271.794 527.384C251.786 541.938 234.15 557.097 215.733 573.433C203.011 584.719 189.423 598.065 171.442 599.617C159.058 600.687 158.794 594.955 150.827 587.834C143.541 581.321 135.587 579.576 129.672 571.072C123.759 562.569 119.413 553.059 112.656 545.278C103.528 534.764 90.2434 525.597 78.1501 518.849C64.5642 511.27 53.1235 502.636 40.8326 492.865C32.1439 485.959 21.9488 479.616 15.5077 470.346C-2.91935 443.822 -27.4178 427.884 -54.3358 409.81C-56.7402 408.195 -59.2587 407.062 -61.8164 406.176V945.853H1259.57V640.484Z" fill="#4A0F26"/>
</g>
<mask id="mask4_352_18780" style="mask-type:luminance" maskUnits="userSpaceOnUse" x="-39" y="584" width="1278" height="268">
<path d="M1239 584.472H-39V852H1239V584.472Z" fill="white"/>
</mask>
<g mask="url(#mask4_352_18780)">
<path d="M1259.57 634.393C1247.29 645.083 1239.42 660.448 1224.89 668.212C1210.34 675.987 1217.37 671.681 1205.39 668.726C1199.53 667.281 1184.46 665.978 1179.16 663.297C1173.74 660.557 1173.79 653.779 1166.08 649.713C1164.84 649.059 1143.49 644.197 1143.47 644.201C1135.65 645.676 1127.6 652.968 1119.59 655.256C1113.5 656.996 1100.76 661.858 1096.08 661.537C1085.63 660.82 1084.58 654.348 1075.57 650.805C1067.88 647.781 1059.16 650.124 1051.4 647.617C1034.45 642.142 1018.09 629.988 1001.5 622.235C998.533 620.847 992.315 622.425 991.024 621.64C988.817 620.295 984.022 614.81 982.366 614.129C971.932 609.836 970.32 607.253 959.484 611.457C953.452 613.796 946.951 618.741 941.422 621.083C933.997 624.225 926.686 623.282 919.367 630.363C914.642 634.933 909.998 641.018 905.876 644.784C902.881 647.52 888.415 659.443 885.026 660.452C873.424 663.904 874.404 657.369 864.817 652.152C855.907 647.302 853.654 648.681 843.595 647.04C836.851 645.939 828.759 643.611 822.852 640.357C815.409 636.255 810.154 626.878 804.722 624.211C794.592 619.239 781.161 620.168 769.907 614.457C757.928 608.379 725.818 581.69 723.037 609.874C687.47 609.393 655.722 634.825 620.17 630.439C603.679 628.405 595.161 632.779 580.184 633.936C570.429 634.689 567.145 630.944 555.897 634.207C547.776 636.563 542.331 638.535 534.271 639.782C519.626 642.05 502.165 650.385 489.15 639.842C483.883 635.575 482.715 627.006 478.633 623.906C473.106 619.711 465.595 619.677 459.868 616.267C452.314 611.769 447.434 602.794 436.309 601.492C425.306 600.205 407.419 612.23 397.009 621.832C393.911 624.69 394.942 630.133 390.878 631.93C388.407 633.023 384.744 631.068 381.965 632.044C374.907 634.525 367.639 641.713 359.899 644.569C350.982 647.859 344.316 652.806 335.154 654.757C328.641 656.142 322.795 660.965 316.725 661.544C309.238 662.258 306.183 657.189 301.195 653.15C296.114 649.035 292.861 649.635 287.831 647.508C283.269 645.579 279.295 639.395 274.326 636.817C269.94 634.542 264.165 633.375 259.691 631.92C234.819 623.826 218.744 649.442 194.445 649.055C184.226 648.892 174.041 639.649 165.686 635.013C161.994 632.963 154.404 627.701 149.941 628.773C146.937 629.495 144.732 635.156 141.568 636.703C137.827 638.532 135.447 636.981 131.795 637.821C122.887 639.873 118.156 645.886 110.151 649.335C104.047 651.964 96.1135 651.479 89.5735 653.273C72.738 657.891 57.2248 664.397 39.7196 663.955C32.9019 663.783 25.1334 667.171 18.5764 665.889C10.6136 664.334 6.16102 656.069 -0.123333 652.146C-6.71611 648.03 -14.5136 648.333 -21.483 644.419C-28.483 640.488 -33.8694 634.05 -39.5164 628.747C-44.7187 623.862 -48.6413 621.67 -55.1847 619.339C-58.1786 618.274 -60.1433 617.262 -61.8184 616.124V945.819C-61.7672 945.831 -61.7178 945.841 -61.6667 945.853H1259.57L1259.57 634.393Z" fill="#661A30"/>
</g>
<mask id="mask5_352_18780" style="mask-type:luminance" maskUnits="userSpaceOnUse" x="-39" y="649" width="1278" height="203">
<path d="M1239 649.224H-39V852H1239V649.224Z" fill="white"/>
</mask>
<g mask="url(#mask5_352_18780)">
<path d="M1259.57 689.288C1155.18 676.824 1047.98 672.594 944.535 664.027C803.882 652.378 662.479 644.94 521.398 652.763C426.749 658.011 330.732 668.592 235.959 668.592C138.047 674.02 37.6152 683.628 -61.8184 683.432V945.851H1259.57L1259.57 689.288Z" fill="#C23545"/>
</g>
<mask id="mask6_352_18780" style="mask-type:luminance" maskUnits="userSpaceOnUse" x="-39" y="639" width="1278" height="213">
<path d="M1239 639H-39V852H1239V639Z" fill="white"/>
</mask>
<g mask="url(#mask6_352_18780)">
<path d="M1259.57 813.692C1071.25 756.131 877.437 711.877 683.85 675.864C669.545 673.203 654.802 670.369 642.69 662.306C637.038 658.543 632.848 654.23 629.91 649.582C593.731 649.768 557.553 650.758 521.398 652.763C426.749 658.011 330.732 668.592 235.959 668.592C138.047 674.021 37.6152 683.628 -61.8184 683.432V945.851H1259.57L1259.57 813.692Z" fill="#CF4844"/>
</g>
<mask id="mask7_352_18780" style="mask-type:luminance" maskUnits="userSpaceOnUse" x="-39" y="729" width="1278" height="123">
<path d="M1239 729.312H-39V852H1239V729.312Z" fill="white"/>
</mask>
<g mask="url(#mask7_352_18780)">
<path d="M1259.57 791.523C1072.85 776.152 889.159 758.338 700.797 769.77C646.909 773.04 593.579 781.586 539.845 780.343C491.206 779.22 442.768 770.15 394.319 770.208C267.084 770.36 139.87 765.096 12.6277 765.096C-12.0599 765.096 -37.0013 769.93 -61.8184 774.531V860.651H1259.57L1259.57 791.523Z" fill="#E05D4B"/>
</g>
<mask id="mask8_352_18780" style="mask-type:luminance" maskUnits="userSpaceOnUse" x="-39" y="691" width="1278" height="161">
<path d="M1239 691.824H-39V852H1239V691.824Z" fill="white"/>
</mask>
<g mask="url(#mask8_352_18780)">
<path d="M452.888 717.22C412.841 717.22 374.482 718.526 334.748 720.579C324.397 721.114 320.699 721.925 318.84 730.667C317.017 739.246 312.987 743.307 308.619 751.697C304.279 760.037 301.602 760.154 292.997 766.198C289.874 768.393 287.977 771.624 284.792 773.572C282.037 775.259 275.309 776.279 273.626 777.941C271.479 780.062 270.226 781.362 271.273 784.326C285.522 784.847 299.849 784.424 314.043 785.294C322.952 785.839 332.533 786.04 341.166 787.732C355.123 790.47 360.869 789.807 375.38 789.497C400.516 788.962 431.031 790.431 455.163 794.563C475.477 798.041 497.163 798.16 517.731 800.232C542.365 802.713 569.877 795.332 594.946 793.696C599.197 793.418 605.335 794.865 608.547 792.224C614.15 787.616 608.373 788.12 605.052 785.292C594.285 776.121 595.317 768.892 591.449 756.257C589.035 748.373 584.323 732.923 577.906 726.465C571.65 720.168 554.29 721.934 543.826 719.925C527.108 716.716 513.188 716.38 496.056 717.403C480.602 718.33 468.005 717.22 452.888 717.22Z" fill="#E86B55"/>
<path d="M331.325 767.654C357.889 739.332 369.094 726.465 415.634 726.465C462.446 726.465 520.568 731.439 565.332 721.912C558.167 720.995 549.855 721.085 543.826 719.928C527.108 716.719 513.188 716.384 496.056 717.406C480.602 718.328 468.005 717.219 452.888 717.219C412.841 717.219 374.482 718.524 334.748 720.577C324.397 721.112 320.699 721.923 318.84 730.665C317.017 739.245 312.987 743.305 308.619 751.696C304.279 760.035 301.602 760.153 292.997 766.197C289.874 768.392 287.977 771.622 284.792 773.57C282.037 775.257 275.309 776.278 273.626 777.939C271.479 780.06 270.225 781.361 271.273 784.324C284.734 784.816 298.264 784.479 311.686 785.173C320.542 778.162 327.617 771.607 331.325 767.654Z" fill="#E86B55"/>
<path d="M328.75 725.183C320.104 727.782 328.646 733.063 336.859 734.52C348.363 736.561 362.999 734.613 374.509 733.378C386.891 732.049 399.89 734.581 412.05 735.729C429.356 737.365 444.643 736.293 461.775 735.711C476.809 735.199 491.448 732.642 506.256 732.306C513.941 732.132 516.178 735.424 522.181 735.956C527.529 736.428 530.316 734.105 534.903 733.402C540.593 732.529 543.406 734.484 548.561 734.704C551.081 734.811 573.047 733.862 574.201 733.066C585.989 724.933 530.291 723.145 525.303 723.104C498.15 722.885 472.932 724.548 446.352 721.63C421.858 718.942 403 729.305 378.766 725.65C369.149 724.2 359.751 725.758 350.142 726.173C345.395 726.379 333.221 724.042 329.57 724.96C329.282 725.03 329.007 725.105 328.75 725.183Z" fill="#4A0F26"/>
<path d="M502.845 726.65C499.871 726.424 496.894 726.245 493.914 726.078C478.377 725.911 462.869 729.847 447.379 727.003C437.76 725.238 428.962 727.678 419.512 729.229C411.493 730.544 403.595 729.972 395.525 729.892C383.83 729.774 371.93 729.922 360.324 728.215C349.778 728.949 339.266 730.064 328.823 731.841C331.034 733.02 333.964 734.008 336.858 734.523C348.362 736.564 362.997 734.617 374.508 733.381C386.889 732.054 399.889 734.584 412.049 735.733C429.354 737.369 444.641 736.297 461.773 735.714C476.807 735.203 491.446 732.645 506.254 732.309C513.939 732.136 516.177 735.428 522.18 735.959C527.527 736.431 530.315 734.109 534.902 733.405C540.592 732.533 543.405 734.487 548.559 734.707C549.652 734.753 554.397 734.601 559.516 734.349C556.723 733.812 553.924 733.32 551.124 732.826C534.619 733.173 519.102 728.462 502.845 726.65Z" fill="#E05D4B"/>
</g>
<mask id="mask9_352_18780" style="mask-type:luminance" maskUnits="userSpaceOnUse" x="-39" y="729" width="1278" height="123">
<path d="M1239 729.312H-39V852H1239V729.312Z" fill="white"/>
</mask>
<g mask="url(#mask9_352_18780)">
<path d="M144.153 838.959C142.917 836.664 157.057 826.793 161.111 824.213C165.166 821.631 175.121 820.157 176.963 824.213C178.807 828.268 176.963 835.642 176.963 835.642C176.963 835.642 182.125 835.642 183.23 838.959C184.338 842.277 146.734 843.753 144.153 838.959Z" fill="#BA263E"/>
<path d="M208.671 831.86C208.671 831.86 214.201 820.65 217.15 821.694C220.1 822.739 227.105 831.86 227.105 831.86C227.105 831.86 214.201 833.977 208.671 831.86Z" fill="#BA263E"/>
<path d="M172.541 785.501C170.093 782.441 188.026 765.962 195.399 764.488C202.772 763.012 232.267 768.175 232.267 768.175C232.267 768.175 220.1 782.922 204.984 785.503C189.869 788.083 175.491 789.189 172.541 785.501Z" fill="#BA263E"/>
<path d="M227.105 808.359C223.895 806.111 225.631 799.142 232.267 796.192C238.902 793.243 231.529 789.925 232.267 785.869C233.004 781.814 239.272 762.85 241.484 764.222C243.695 765.594 266.185 779.972 276.876 784.395C287.567 788.819 327.016 801.723 325.172 804.303C323.328 806.883 266.185 809.833 252.543 809.833C238.904 809.834 230.793 810.94 227.105 808.359Z" fill="#BA263E"/>
<path d="M241.483 764.222C234.846 764.856 206.459 785.869 188.763 794.718C171.067 803.567 145.996 810.07 145.996 810.07C145.996 810.07 211.241 810.051 235.579 810.051C259.917 810.051 241.483 764.222 241.483 764.222Z" fill="#E86B55"/>
<path d="M195.399 764.488C182.864 765.225 134.198 791.032 134.198 791.032C134.198 791.032 176.227 796.194 204.246 791.032C232.266 785.869 195.399 764.488 195.399 764.488Z" fill="#E86B55"/>
<path d="M245.813 810.209C243.365 807.149 261.298 790.67 268.671 789.196C276.044 787.72 305.539 792.883 305.539 792.883C305.539 792.883 293.372 807.63 278.256 810.211C263.141 812.791 248.763 813.897 245.813 810.209Z" fill="#BA263E"/>
<path d="M300.377 833.067C297.167 830.819 298.903 823.85 305.539 820.9C312.174 817.95 304.801 814.633 305.539 810.577C306.276 806.522 312.544 787.558 314.756 788.93C316.967 790.301 339.457 804.68 350.148 809.103C360.839 813.527 400.288 826.431 398.444 829.011C396.6 831.591 339.455 834.541 325.815 834.541C312.176 834.542 304.065 835.648 300.377 833.067Z" fill="#BA263E"/>
<path d="M314.755 788.93C308.118 789.564 279.731 810.578 262.035 819.426C244.339 828.275 219.268 834.778 219.268 834.778C219.268 834.778 284.513 834.759 308.851 834.759C333.189 834.759 314.755 788.93 314.755 788.93Z" fill="#E86B55"/>
<path d="M268.671 789.196C256.136 789.934 207.47 815.741 207.47 815.741C207.47 815.741 249.499 820.902 277.518 815.741C305.538 810.578 268.671 789.196 268.671 789.196Z" fill="#E86B55"/>
<path d="M170.933 821.735C167.436 821.723 163.371 822.775 161.113 824.213C157.057 826.793 142.917 836.664 144.155 838.959C153.296 838.959 171.078 829.814 170.933 821.735Z" fill="#E86B55"/>
<path d="M-13.6992 790.951C-16.4392 785.859 14.9178 763.968 23.9115 758.244C32.9052 752.52 54.9823 749.25 59.0702 758.244C63.1581 767.238 59.0702 783.591 59.0702 783.591C59.0702 783.591 70.5176 783.591 72.9697 790.951C75.4234 798.309 -7.97543 801.58 -13.6992 790.951Z" fill="#BA263E"/>
<path d="M45.6905 752.751C37.9339 752.723 28.9215 755.056 23.9134 758.244C14.9197 763.968 -16.439 785.859 -13.6973 790.951C6.58034 790.951 46.0143 770.67 45.6905 752.751Z" fill="#E86B55"/>
<path d="M217.15 821.694C214.201 820.65 208.671 831.86 208.671 831.86C209.179 831.957 209.745 831.951 210.338 831.857C214.852 831.136 221.061 825.332 217.15 821.694Z" fill="#E86B55"/>
<path d="M45.3496 849.669C44.1142 847.373 58.254 837.502 62.3078 834.922C66.3634 832.343 76.3181 830.867 78.1601 834.922C80.0039 838.978 78.1601 846.351 78.1601 846.351C78.1601 846.351 83.3216 846.351 84.4275 849.669C85.5351 852.986 47.9295 854.462 45.3496 849.669Z" fill="#BA263E"/>
<path d="M109.868 842.57C109.868 842.57 115.398 831.359 118.347 832.404C121.297 833.449 128.302 842.57 128.302 842.57C128.302 842.57 115.398 844.686 109.868 842.57Z" fill="#BA263E"/>
<path d="M72.128 832.445C68.6313 832.433 64.5673 833.484 62.3078 834.923C58.2523 837.502 44.1125 847.374 45.3496 849.669C54.4932 849.669 72.2745 840.525 72.128 832.445Z" fill="#E86B55"/>
<path d="M118.347 832.404C115.398 831.359 109.868 842.57 109.868 842.57C110.376 842.667 110.942 842.66 111.535 842.567C116.049 841.846 122.256 836.042 118.347 832.404Z" fill="#E86B55"/>
<path d="M68.7539 856.262C68.7539 856.262 73.5473 845.571 76.4969 845.201C79.4465 844.833 78.7087 840.408 82.0264 840.408C85.3441 840.408 91.9811 854.786 92.3492 856.26C92.7173 857.737 78.3406 860.317 68.7539 856.262Z" fill="#BA263E"/>
<path d="M80.6785 840.781C78.8808 841.825 78.9455 844.896 76.4969 845.203C73.5473 845.571 68.7539 856.263 68.7539 856.263C73.0531 852.68 82.1934 853.581 80.6785 840.781Z" fill="#E86B55"/>
</g>
</g>
<defs>
<clipPath id="clip0_352_18780">
<rect width="393" height="852" fill="white"/>
</clipPath>
</defs>
</svg>
